HIERARCHY
ROOT root
{
	OFFSET 0.000000 0.000000 0.000000
	CHANNELS 6 Xposition Yposition Zposition Zrotation Yrotation Xrotation
	JOINT lhip
	{
		OFFSET 0.058581 -0.082280 -0.017664
		CHANNELS 3 Zrotation Yrotation Xrotation
		JOINT lknee
		{
			OFFSET 0.043451 -0.386469 0.008037
			CHANNELS 3 Zrotation Yrotation Xrotation
			JOINT lankle
			{
				OFFSET -0.014790 -0.426874 -0.037428
				CHANNELS 3 Zrotation Yrotation Xrotation
				JOINT ltoe
				{
					OFFSET 0.041054 -0.060286 0.122042
					CHANNELS 3 Zrotation Yrotation Xrotation
					End Site
					{
						OFFSET 0.000000 0.000000 0.000000
					}
				}
			}
		}
	}
	JOINT rhip
	{
		OFFSET -0.060310 -0.090513 -0.013543
		CHANNELS 3 Zrotation Yrotation Xrotation
		JOINT rknee
		{
			OFFSET -0.043257 -0.383688 -0.004843
			CHANNELS 3 Zrotation Yrotation Xrotation
			JOINT rankle
			{
				OFFSET 0.019056 -0.420046 -0.034562
				CHANNELS 3 Zrotation Yrotation Xrotation
				JOINT rtoe
				{
					OFFSET -0.034840 -0.062106 0.130323
					CHANNELS 3 Zrotation Yrotation Xrotation
					End Site
					{
						OFFSET 0.000000 0.000000 0.000000
					}
				}
			}
		}
	}
	JOINT lowerback
	{
		OFFSET 0.004439 0.124404 -0.038385
		CHANNELS 3 Zrotation Yrotation Xrotation
		JOINT upperback
		{
			OFFSET 0.004488 0.137956 0.026820
			CHANNELS 3 Zrotation Yrotation Xrotation
			JOINT chest
			{
				OFFSET -0.002265 0.056032 0.002855
				CHANNELS 3 Zrotation Yrotation Xrotation
				JOINT lowerneck
				{
					OFFSET -0.013390 0.211636 -0.033468
					CHANNELS 3 Zrotation Yrotation Xrotation
					JOINT upperneck
					{
						OFFSET 0.010113 0.088937 0.050410
						CHANNELS 3 Zrotation Yrotation Xrotation
						End Site
						{
							OFFSET 0.000000 0.000000 0.000000
						}
					}
				}
				JOINT lclavicle
				{
					OFFSET 0.071702 0.114000 -0.018898
					CHANNELS 3 Zrotation Yrotation Xrotation
					JOINT lshoulder
					{
						OFFSET 0.122921 0.045205 -0.019046
						CHANNELS 3 Zrotation Yrotation Xrotation
						JOINT lelbow
						{
							OFFSET 0.255332 -0.015649 -0.022946
							CHANNELS 3 Zrotation Yrotation Xrotation
							JOINT lwrist
							{
								OFFSET 0.265709 0.012698 -0.007375
								CHANNELS 3 Zrotation Yrotation Xrotation
								End Site
								{
									OFFSET 0.000000 0.000000 0.000000
								}
							}
						}
					}
				}
				JOINT rclavicle
				{
					OFFSET -0.082954 0.112472 -0.023707
					CHANNELS 3 Zrotation Yrotation Xrotation
					JOINT rshoulder
					{
						OFFSET -0.113228 0.046853 -0.008472
						CHANNELS 3 Zrotation Yrotation Xrotation
						JOINT relbow
						{
							OFFSET -0.260127 -0.014369 -0.031269
							CHANNELS 3 Zrotation Yrotation Xrotation
							JOINT rwrist
							{
								OFFSET -0.269108 0.006794 -0.006027
								CHANNELS 3 Zrotation Yrotation Xrotation
								End Site
								{
									OFFSET 0.000000 0.000000 0.000000
								}
							}
						}
					}
				}
			}
		}
	}
}
MOTION
Frames: 14
Frame Time: 0.033333
0.110857 0.460189 0.984730 94.897353 2.287659 98.360882 -4.139533 2.089217 -2.705503 -3.341147 -7.988642 -1.774055 6.661811 13.034716 -10.458615 0.000000 -0.000000 0.000000 -23.151706 -5.276817 3.418775 1.593769 7.503575 10.880914 21.202438 -10.954348 21.899853 0.000000 -0.000000 0.000000 9.154656 -1.842736 -1.687281 3.645433 -7.331769 -21.511696 2.329950 2.618891 9.601456 1.795849 32.169995 7.343588 0.282013 29.145012 -15.247495 28.882507 -2.278168 -21.957418 13.576032 -14.192260 -18.217908 11.204463 -4.679346 -12.305190 -19.639971 -11.507432 -18.524876 -26.544137 -7.023070 -16.209600 -10.742619 -1.066253 -18.725344 -123.055706 64.389370 -132.899476 21.432495 19.051976 -32.858209 
0.111408 0.460307 0.984770 95.083611 2.167726 98.468664 -4.280828 2.095924 -2.787865 -3.306467 -8.266315 -1.702852 6.395894 13.172920 -10.558465 0.000000 -0.000000 0.000000 -23.236230 -5.546461 3.501931 1.618484 7.330711 10.831740 20.924100 -10.876800 21.844349 0.000000 -0.000000 0.000000 9.050658 -1.918754 -1.733156 3.624104 -7.478364 -21.707365 2.444208 2.615546 9.867696 1.623504 32.316372 7.407800 0.148559 29.351184 -15.672600 29.016408 -2.225881 -22.069817 13.518126 -13.640065 -18.427166 11.017116 -4.406087 -13.103664 -18.417540 -11.057098 -18.512099 -26.597599 -7.387546 -16.531276 -10.697826 -1.615542 -18.670843 -123.971375 64.620139 -134.088507 20.567757 19.137587 -33.269160 
0.112137 0.460611 0.984680 95.192168 2.056346 98.445581 -4.371021 2.044502 -2.623547 -3.342200 -8.197485 -1.776082 6.163134 13.121083 -10.509957 0.000000 -0.000000 0.000000 -23.361050 -5.589050 3.699899 1.622362 7.142233 10.750717 20.827242 -10.895928 21.990544 0.000000 -0.000000 0.000000 8.926348 -1.932466 -1.610423 3.589905 -7.575601 -21.786338 2.461806 2.487799 9.800248 1.761779 32.612073 7.549634 0.045456 29.281197 -15.959747 29.116599 -2.018959 -21.662031 13.424062 -13.213801 -18.784103 11.136635 -3.993511 -14.018796 -19.876854 -11.782955 -18.852157 -26.643099 -7.491188 -16.292602 -10.334085 -2.236370 -18.626497 -123.593644 64.158698 -133.541775 22.180567 20.010039 -33.608076 
0.112862 0.460857 0.984940 95.336306 1.961782 98.495603 -4.490278 2.074956 -2.742218 -3.241392 -8.292292 -1.661202 6.347404 13.027927 -10.546415 0.000000 -0.000000 0.000000 -23.474424 -5.717952 3.692397 1.604000 6.901311 10.822515 20.957955 -10.994417 22.384677 0.000000 -0.000000 0.000000 8.956788 -2.003296 -1.453770 3.513747 -7.549960 -22.305544 2.483681 2.456429 10.198593 1.447115 32.520593 7.583632 -0.104443 29.040556 -16.586274 29.095619 -1.754256 -21.721714 13.219187 -13.213939 -19.336044 11.433941 -3.222974 -15.249567 -19.199142 -11.724501 -19.061390 -26.907172 -8.034210 -16.019608 -9.843449 -2.981128 -18.767896 -124.397117 63.790652 -134.164704 21.470021 19.772484 -33.657302 
0.113260 0.460980 0.984989 95.459600 1.935016 98.580811 -4.492790 2.061560 -2.799857 -3.245020 -8.415099 -1.689051 6.285310 13.053469 -10.494048 0.000000 -0.000000 0.000000 -23.507074 -5.703925 3.713973 1.666245 6.931062 10.816824 20.996611 -11.062183 22.455868 0.000000 -0.000000 0.000000 8.951999 -2.056169 -1.416087 3.531346 -7.531492 -22.618650 2.482620 2.399150 10.415064 1.214017 32.615632 7.534219 -0.177191 29.143046 -16.842078 29.107073 -1.489406 -21.670675 13.103316 -13.082083 -19.423809 11.404892 -3.149264 -15.503376 -19.055265 -11.980046 -19.734698 -26.905813 -8.367146 -16.012649 -9.723905 -3.045460 -18.979362 -124.377644 63.658442 -133.975525 21.318781 19.594061 -33.661029 
0.114117 0.461245 0.985059 95.450125 1.909300 98.585025 -4.538487 2.131925 -2.713155 -3.260900 -8.572878 -1.794241 6.061920 13.350087 -10.486598 0.000000 -0.000000 0.000000 -23.556187 -5.553924 3.623220 1.719674 7.183069 11.051202 21.089854 -11.144863 22.392826 0.000000 -0.000000 0.000000 9.024874 -2.166784 -1.221938 3.521780 -7.428773 -23.156500 2.373723 2.366753 10.589373 1.172078 32.356220 7.351774 -0.156404 29.213341 -16.898349 29.127845 -1.069634 -21.400161 13.023639 -12.930448 -19.502459 11.072751 -3.446934 -16.096767 -17.968072 -12.487305 -21.885926 -26.909052 -8.798872 -15.921431 -9.499558 -2.794200 -19.201091 -124.359413 63.629998 -133.663679 20.144816 19.087512 -33.628138 
0.115938 0.461366 0.985200 95.402399 1.816463 98.689038 -4.626752 2.172090 -2.571865 -3.173370 -8.678223 -2.072232 6.345974 13.229884 -10.390239 0.000000 -0.000000 0.000000 -23.664999 -5.641187 3.555252 1.537898 7.292982 10.864529 21.384575 -11.274665 23.563985 0.000000 -0.000000 0.000000 8.856165 -2.164624 -1.397411 3.549368 -7.346911 -23.516258 2.331257 2.420194 10.751575 1.167494 32.692195 7.259179 -0.051354 29.540849 -17.158428 29.283784 -1.159962 -21.413476 12.929675 -12.599124 -19.478160 10.894710 -3.828155 -17.281816 -16.716021 -12.752189 -23.759383 -26.782316 -8.858554 -15.716155 -9.605175 -3.172809 -19.502443 -124.294318 63.420365 -133.368727 19.565955 18.300534 -32.923895 
0.117489 0.461830 0.985024 95.571434 1.795698 98.928165 -4.640523 2.019789 -2.687929 -3.139029 -8.538533 -2.155642 6.273755 13.036236 -10.342811 0.000000 -0.000000 0.000000 -23.696414 -5.634838 3.622843 1.486329 7.550023 10.490219 21.426184 -11.269555 24.279502 0.000000 -0.000000 0.000000 8.917178 -2.117850 -1.948799 3.503661 -7.476390 -23.444138 2.261592 2.380103 10.838818 1.071712 32.920344 7.254693 -0.262015 29.589371 -17.626889 29.214699 -1.328676 -21.575588 13.146289 -12.609763 -19.770077 11.160547 -3.447369 -17.708731 -16.463481 -12.485520 -23.263620 -26.887568 -8.925457 -15.850818 -9.462635 -3.369349 -19.614934 -123.392856 63.206246 -132.446365 19.352111 18.166679 -32.968581 
0.118163 0.462644 0.985150 95.835723 1.823557 99.008666 -4.668508 1.915039 -2.778174 -3.083061 -8.685501 -1.999580 6.296255 13.061677 -10.386090 0.000000 -0.000000 0.000000 -23.587489 -5.495534 3.768997 1.465004 7.853503 10.429461 21.242522 -11.298008 24.231900 0.000000 -0.000000 0.000000 9.047345 -2.135997 -1.945826 3.477927 -7.507372 -23.788666 2.193311 2.371476 10.750509 1.076392 32.778037 7.501698 -0.305307 29.729311 -17.874215 29.066502 -1.338827 -21.227013 13.375912 -12.451514 -19.733349 10.892325 -4.169191 -17.346554 -16.234794 -12.466316 -23.386190 -26.963577 -9.052700 -15.748673 -9.325023 -3.482773 -19.905169 -123.072538 63.227621 -131.869718 19.017167 17.992823 -32.820781 
0.121178 0.464344 0.984541 96.055986 1.793810 99.095901 -4.849520 1.921409 -2.643387 -2.916819 -8.719790 -2.058237 6.056632 12.970857 -10.427043 0.000000 -0.000000 0.000000 -23.648662 -5.664280 3.991393 1.415786 7.093562 10.282348 21.317715 -11.485554 24.307491 0.000000 -0.000000 0.000000 8.988169 -2.221503 -2.318819 3.447113 -7.469353 -24.063198 2.243379 2.482952 10.957751 0.934221 33.044716 7.646224 -0.462047 29.629277 -18.594994 29.212591 -0.967042 -21.475423 13.177178 -13.420595 -19.889417 11.045287 -4.183086 -16.786767 -17.247595 -12.134694 -21.730077 -27.044288 -9.404564 -15.634871 -8.949600 -3.576905 -20.099281 -122.015295 62.944175 -130.771453 19.835624 18.000570 -32.345536 
0.122782 0.465647 0.984074 95.944054 1.745603 98.945526 -4.939374 1.865742 -2.257976 -2.952225 -8.569793 -2.277231 6.061956 12.967985 -10.453853 0.000000 -0.000000 0.000000 -23.683758 -5.597322 4.035474 1.305027 6.915271 10.453715 21.204745 -11.615159 24.363870 0.000000 -0.000000 0.000000 8.952019 -2.120675 -2.351626 3.418453 -7.431614 -24.116666 2.158898 2.454635 11.062342 0.881575 33.095572 7.841718 -0.495746 29.822866 -18.910070 29.323399 -1.055219 -21.574448 13.171584 -13.443203 -19.502943 11.143424 -4.377420 -16.226024 -17.038349 -12.024095 -21.676162 -26.990739 -9.564847 -16.050654 -8.744086 -3.386714 -19.929712 -121.604378 62.936534 -130.503717 19.570486 18.012605 -32.505787 
0.124246 0.467029 0.983372 95.777498 1.663239 98.985078 -5.116326 2.073220 -2.179152 -3.041649 -8.782641 -2.274875 6.223241 13.067014 -10.546220 0.000000 -0.000000 0.000000 -23.608690 -5.337380 3.963863 1.130413 7.393959 10.761986 21.048393 -11.517567 23.426158 0.000000 -0.000000 0.000000 8.916328 -2.152042 -2.724459 3.353157 -7.399635 -23.991223 2.171568 2.651482 11.013438 0.772406 32.845955 8.063558 -0.277908 29.867227 -18.879402 29.440320 -1.505980 -21.510576 13.184501 -13.321637 -19.345832 11.306630 -4.349255 -15.522832 -17.038221 -12.217702 -22.114156 -27.145373 -9.336330 -16.172371 -8.281975 -3.292331 -20.004877 -121.281911 62.965825 -129.644001 19.467315 17.712072 -32.721479 
0.126539 0.468624 0.982520 95.855018 1.531649 98.836672 -5.350821 2.101606 -1.997388 -3.039040 -8.782713 -1.988963 6.092279 12.852193 -10.830391 0.000000 -0.000000 0.000000 -23.642706 -5.426217 4.259769 0.915746 6.942536 10.607422 20.857562 -11.875184 23.486989 0.000000 -0.000000 0.000000 8.931830 -2.181880 -3.046104 3.338277 -7.479962 -23.732243 1.989869 2.468808 11.081295 0.675028 32.983091 8.447992 -0.559576 29.621185 -19.204500 29.442494 -1.182372 -21.373236 13.201794 -13.567450 -19.619522 11.353287 -4.442794 -15.350682 -18.968672 -12.436530 -21.140577 -27.137028 -9.250471 -15.901313 -8.189630 -3.164075 -20.070917 -120.381080 62.799225 -128.415611 20.642048 18.212504 -32.443872 
0.128136 0.470283 0.981756 95.791407 1.417721 98.806424 -5.567270 1.955746 -1.728049 -3.041409 -8.570451 -2.262935 6.072466 12.761373 -10.747136 0.000000 -0.000000 0.000000 -23.742589 -5.592408 4.307661 0.769441 6.885482 10.632425 20.809679 -12.053504 23.566051 0.000000 -0.000000 0.000000 9.164378 -2.268286 -2.996679 3.130754 -7.595973 -23.992088 1.886848 2.684221 10.961384 0.654156 32.903797 8.583308 -0.324786 29.605374 -18.935490 29.558226 -1.481491 -21.377110 13.236798 -13.559935 -19.340827 11.549616 -4.384884 -14.589128 -19.371130 -12.247234 -20.454710 -27.278102 -8.964398 -15.640840 -8.041720 -3.348175 -20.022278 -119.931316 62.870845 -128.048889 20.941278 18.298271 -32.339102 
